<?xml version="1.0" encoding="utf-8"?>
<!-- Generator: Adobe Illustrator 16.0.0, SVG Export Plug-In . SVG Version: 6.00 Build 0)  -->
<svg version="1.2" baseProfile="tiny" id="Layer_1" xmlns="http://www.w3.org/2000/svg" xmlns:xlink="http://www.w3.org/1999/xlink"
	 x="0px" y="0px" width="40px" height="40px" viewBox="0 0 40 40" xml:space="preserve">
<circle fill="#FFFFFF" cx="20" cy="20" r="20"/>
<path fill="#010101" d="M20,3.875c-4.381,0-4.928,0.02-6.647,0.097c-1.718,0.081-2.887,0.351-3.915,0.749
	c-1.06,0.412-1.96,0.965-2.856,1.86c-0.896,0.896-1.45,1.796-1.86,2.856c-0.398,1.028-0.67,2.197-0.749,3.915
	C3.891,15.072,3.875,15.619,3.875,20s0.02,4.928,0.097,6.647c0.081,1.716,0.351,2.887,0.749,3.914
	c0.412,1.059,0.965,1.961,1.86,2.857c0.896,0.896,1.796,1.449,2.856,1.859c1.029,0.397,2.199,0.67,3.915,0.75
	c1.72,0.081,2.267,0.097,6.647,0.097s4.928-0.021,6.647-0.097c1.716-0.081,2.887-0.353,3.914-0.75
	c1.059-0.411,1.961-0.964,2.857-1.859c0.896-0.896,1.449-1.795,1.859-2.857c0.397-1.027,0.67-2.198,0.75-3.914
	c0.081-1.72,0.097-2.267,0.097-6.647s-0.021-4.928-0.097-6.647c-0.081-1.716-0.353-2.888-0.75-3.915
	c-0.411-1.06-0.964-1.96-1.859-2.856c-0.896-0.896-1.795-1.45-2.857-1.86c-1.027-0.398-2.198-0.67-3.914-0.749
	C24.928,3.891,24.381,3.875,20,3.875z M20,6.777c4.304,0,4.816,0.021,6.518,0.096c1.571,0.074,2.425,0.334,2.992,0.558
	c0.755,0.292,1.29,0.642,1.856,1.204c0.563,0.564,0.913,1.101,1.205,1.855c0.22,0.566,0.483,1.42,0.554,2.992
	c0.077,1.701,0.095,2.213,0.095,6.518c0,4.306-0.021,4.817-0.1,6.518c-0.081,1.571-0.344,2.425-0.565,2.992
	c-0.301,0.755-0.644,1.29-1.208,1.856c-0.563,0.563-1.107,0.913-1.854,1.205c-0.564,0.22-1.432,0.483-3.003,0.554
	c-1.712,0.077-2.216,0.095-6.529,0.095c-4.315,0-4.819-0.021-6.53-0.1c-1.572-0.081-2.439-0.344-3.004-0.565
	c-0.765-0.301-1.29-0.644-1.854-1.208c-0.565-0.563-0.927-1.107-1.209-1.854c-0.222-0.564-0.482-1.432-0.564-3.003
	c-0.061-1.693-0.082-2.216-0.082-6.51s0.021-4.818,0.082-6.531c0.082-1.573,0.343-2.438,0.564-3.003
	C7.646,9.68,8.007,9.156,8.572,8.59c0.563-0.563,1.089-0.926,1.854-1.207c0.564-0.223,1.412-0.484,2.984-0.564
	c1.713-0.061,2.217-0.082,6.529-0.082L20,6.777z M20,11.72c-4.575,0-8.28,3.709-8.28,8.28c0,4.575,3.709,8.28,8.28,8.28
	c4.575,0,8.28-3.709,8.28-8.28C28.28,15.425,24.571,11.72,20,11.72z M20,25.374c-2.97,0-5.375-2.404-5.375-5.374
	S17.03,14.625,20,14.625S25.374,17.03,25.374,20S22.97,25.374,20,25.374z M30.543,11.394c0,1.067-0.868,1.935-1.935,1.935
	c-1.068,0-1.935-0.867-1.935-1.935s0.867-1.935,1.935-1.935C29.674,9.458,30.543,10.326,30.543,11.394z"/>
</svg>
