<?xml version="1.0" encoding="utf-8"?>
<!-- Generator: Adobe Illustrator 16.0.0, SVG Export Plug-In . SVG Version: 6.00 Build 0)  -->
<svg version="1.2" baseProfile="tiny" id="Layer_1" xmlns="http://www.w3.org/2000/svg" xmlns:xlink="http://www.w3.org/1999/xlink"
	 x="0px" y="0px" width="320px" height="130px" viewBox="0 0 320 130" xml:space="preserve">
<g>
	<g id="TNG">
		<path fill="#5590CC" d="M22.915,112.292H7.485L5.6,116.638h5.397l-5.753,13.44h6.111l5.755-13.44h3.972L22.915,112.292z
			 M34.118,112.292l-2.902,6.744h-3.259l2.851-6.744h-6.059l-7.639,17.786h6.111l2.699-6.346h3.31l-2.75,6.346h6.111l7.587-17.786
			H34.118z M315.328,112.341h-13.341l-7.59,17.786h6.113l5.753-13.439h3.057c0.355,0,0.406,0.7,0.304,1.05l-5.297,12.39h6.112
			l6.315-14.788C317.162,114.289,316.908,112.341,315.328,112.341L315.328,112.341z M230.588,122.185
			c0.611-0.2,1.783-0.951,2.141-1.8l2.14-5.046c0.406-1,0.202-2.998-1.377-2.998H220.15l-7.641,17.786h6.112l3.004-6.993h2.904
			c0.456,0,0.61,0.599,0.508,0.899l-2.598,6.094h6.111l2.698-6.294C231.505,123.232,231.152,122.483,230.588,122.185z
			 M227.734,117.737l-0.709,1.598h-3.82l1.119-2.647h3.058C227.84,116.688,227.89,117.388,227.734,117.737L227.734,117.737z
			 M204.975,123.134h7.636l1.633-3.799h-7.641l1.173-2.647h7.638l1.832-4.347h-13.697l-7.641,17.786h13.75l1.833-4.346h-7.638
			L204.975,123.134z M251.673,112.292h-12.579l-1.835,4.346h8.709c0.461,0,0.919,0.6,0.865,0.999l-1.068,8.095h-5.296l5.499-7.146
			h-6.416l-8.758,11.492h20.573l2.035-15.839C253.454,113.39,252.74,112.292,251.673,112.292L251.673,112.292z M294.449,112.341
			h-10.235c-0.865,0-1.783,0.799-2.139,1.6l-5.958,13.89c-0.408,0.899,0.05,2.349,1.884,2.349h11.509c1.224,0,2.189-1.4,2.699-2.499
			l4.84-11.293C297.657,114.888,296.895,112.341,294.449,112.341z M290.324,117.686l-3.106,7.297
			c-0.15,0.399-0.611,0.799-1.021,0.799h-2.595c-0.205,0-0.408-0.249-0.357-0.449l3.464-8.145c0.15-0.301,0.562-0.55,0.917-0.55
			h2.392C290.427,116.688,290.479,117.388,290.324,117.686L290.324,117.686z M197.536,112.341h-13.34l-7.588,17.786h6.112
			l5.753-13.439h3.055c0.357,0,0.408,0.7,0.305,1.05l-5.294,12.39h6.112l6.313-14.788
			C199.32,114.289,199.117,112.341,197.536,112.341z M271.941,112.341h-15.431l-1.835,4.297h5.399l-5.754,13.489h6.059l5.755-13.489
			h3.975L271.941,112.341z M35.952,130.127h13.546l1.833-4.346h-7.536l1.121-2.647h7.537l1.578-3.799h-7.486l1.121-2.647h7.486
			l1.833-4.347H43.489L35.952,130.127z M274.59,112.341l-7.64,17.786h6.111l7.587-17.786H274.59z M88.762,125.731l1.12-2.649h7.638
			l1.63-3.797h-7.639l1.12-2.647h7.639l1.884-4.346h-13.75l-7.588,17.786h13.699l1.886-4.347H88.762z M82.244,112.292H68.902
			l-7.589,17.786h6.111l5.754-13.44h3.057c0.355,0,0.407,0.7,0.305,1.048l-5.296,12.393h6.111l6.314-14.789
			C84.025,114.289,83.771,112.292,82.244,112.292L82.244,112.292z M116.415,112.292c-1.682,0-4.482,1.898-4.788,2.948l-0.968-2.948
			h-6.264l2.495,7.043c-3.411,3.348-5.906,6.446-7.892,6.446h-0.815l-1.834,4.346h5.653c1.986,0,5.245-4.045,6.722-5.645
			l1.986,5.596h6.111l-3.412-9.593c1.579-1.648,2.698-3.848,4.685-3.848h1.426l1.884-4.346H116.415L116.415,112.292z
			 M120.845,116.638h5.398l-5.754,13.44h6.111l5.754-13.44h3.921l1.885-4.346h-15.43L120.845,116.638z M152.572,119.335l-1.63,3.799
			h2.088l-0.815,1.849c-0.152,0.399-0.611,0.799-1.018,0.799H148.6c-0.204,0-0.408-0.249-0.357-0.449l3.463-8.145
			c0.153-0.301,0.56-0.55,0.917-0.55h9.116l1.019-2.398c0.305-0.749-0.05-1.947-1.426-1.947H149.16
			c-0.866,0-1.783,0.799-2.139,1.598l-5.958,13.891c-0.409,0.899,0.05,2.347,1.884,2.347h11.458c1.222,0,2.189-1.397,2.698-2.497
			l3.565-8.295H152.572z M176.354,123.134l1.629-3.799h-7.637l1.12-2.647h7.638l1.832-4.347h-13.698l-7.638,17.786h13.75
			l1.832-4.346h-7.641l1.173-2.647H176.354z"/>
	</g>
	<g id="Star_Trek">
		<path fill="#5590CC" d="M106.636,11.563c1.529,0,2.343,1.199,1.579,3.599l-8.454,25.131H89.729l15.227-20.635H91.512L63.35,52.584
			h48.736l12.323-43.869c2.293-6.096-0.814-8.694-3.259-8.694H95.077l-4.89,11.492h16.449V11.563z M47.359,52.683h13.903
			l13.546-32.976H60.906L47.359,52.683z M151.349,19.707h-23.578l-13.496,32.927h13.903l9.064-22.085h5.805
			c1.426,0,2.75,1.749,2.242,4.198l-7.181,17.837h13.902l6.366-15.539c0.865-2.599,0-4.547-1.069-6.346
			c1.68-0.7,3.871-0.749,5.041-3.248l2.647-6.495h0.052l5.298-12.241c3.156-6.096,0.457-8.694-2.038-8.694h-32.287l-4.888,11.492
			h20.98c1.478,0,2.138,1.199,1.069,3.598L151.349,19.707z M87.59,11.563l4.838-11.491H59.581l-4.888,11.491H87.59z M157.461,52.634
			h32.897l4.887-11.492h-32.896L157.461,52.634z"/>
		<path fill="#5590CC" d="M36.716,51.884c4.175-1.35,7.587-3.048,11.152-6.495c3.362-3.298,5.449-8.444,5.296-13.341
			c-0.253-6.395-3.818-11.092-9.624-12.541c-5.45-1.348-7.996-1.599-8.098-4.346c-0.103-2.149,1.68-3.698,4.889-3.698h11.763
			l5.094-11.642H36.513c-10.186,0-16.5,7.246-16.144,16.788c0.255,6.245,3.157,9.393,9.879,11.642
			c3.921,1.299,6.265,1.449,6.366,4.646c0.102,2.248-1.223,4.646-3.667,6.396c-2.19,1.548-5.398,1.848-9.778,1.848H5.143
			L0.101,52.783h23.832C30.605,52.833,34.832,52.433,36.716,51.884z M277.391,71.67h4.685c2.089,0,3.513,2.398,4.531,4.197
			l8.657,17.838h15.787l-14.613-26.683c-1.682-2.797-4.332-6.244-7.64-6.244h-20.932l-13.545,32.927h13.901L277.391,71.67z
			 M259.158,71.869l4.583-11.091h-31.063L219.08,93.705h31.064l1.731-4.098l3.056-7.395h-17.213l4.226-10.344H259.158z
			 M150.126,93.705h13.954l13.496-32.927h-13.904L150.126,93.705z M308.811,52.634l11.255-11.492h-20.778
			c-4.174,0-6.06,2.099-9.114,3.299l0.711-3.299h-14.615l-4.887,11.492H308.811z M214.037,52.634c1.479,0,2.139,1.199,1.07,3.596
			l-1.834,4.549h-23.579l-13.495,32.927h13.904l9.064-22.085h5.804c1.429,0,2.752,1.748,2.242,4.196l-7.182,17.837h13.854
			l6.363-15.538c0.868-2.598,0-4.548-1.067-6.345c1.682-0.7,3.87-0.75,5.043-3.249l2.646-6.494h0.051l5.35-12.241
			c3.157-6.096,0.458-8.694-2.037-8.694h-32.234l-4.891,11.491h20.929V52.634z M271.787,41.142h-30.961l-4.735,11.492h30.962
			L271.787,41.142z"/>
	</g>
</g>
</svg>
