<?xml version="1.0" encoding="utf-8"?>
<!-- Generator: Adobe Illustrator 16.0.0, SVG Export Plug-In . SVG Version: 6.00 Build 0)  -->
<svg version="1.2" baseProfile="tiny" id="Layer_1" xmlns="http://www.w3.org/2000/svg" xmlns:xlink="http://www.w3.org/1999/xlink"
	 x="0px" y="0px" width="40px" height="40px" viewBox="0 0 40 40" xml:space="preserve">
<circle fill="#FFFFFF" cx="20" cy="20" r="20"/>
<path fill="#010101" d="M35.403,10.426c-1.141,0.5-2.358,0.842-3.641,0.998c1.307-0.787,2.313-2.028,2.788-3.509
	c-1.227,0.716-2.584,1.235-4.03,1.526c-1.154-1.236-2.8-2.01-4.627-2.01c-3.501,0-6.341,2.839-6.341,6.336
	c0,0.503,0.059,0.986,0.164,1.449c-5.27-0.249-9.941-2.779-13.067-6.605c-0.55,0.93-0.858,2.012-0.858,3.189
	c0,2.203,1.121,4.14,2.82,5.277c-1.041-0.033-2.019-0.319-2.871-0.793v0.078c0,3.073,2.182,5.636,5.084,6.22
	c-0.532,0.143-1.094,0.221-1.67,0.221c-0.404,0-0.793-0.039-1.18-0.111c0.813,2.518,3.15,4.353,5.932,4.403
	c-2.164,1.7-4.908,2.712-7.862,2.712c-0.503,0-1.004-0.029-1.508-0.086c2.821,1.797,6.144,2.847,9.738,2.847
	c11.667,0,18.039-9.659,18.039-18.022c0-0.269,0-0.541-0.02-0.812c1.238-0.889,2.32-2.01,3.17-3.283L35.403,10.426L35.403,10.426z"
	/>
</svg>
